<?xml version="1.0" encoding="iso-8859-1"?>
<!-- Generator: Adobe Illustrator 16.0.0, SVG Export Plug-In . SVG Version: 6.00 Build 0)  -->
<!DOCTYPE svg PUBLIC "-//W3C//DTD SVG 1.1//EN" "http://www.w3.org/Graphics/SVG/1.1/DTD/svg11.dtd">
<svg version="1.1" id="Capa_1" xmlns="http://www.w3.org/2000/svg" xmlns:xlink="http://www.w3.org/1999/xlink" x="0px" y="0px"
	 width="739.624px" height="739.623px" viewBox="0 0 739.624 739.623" style="enable-background:new 0 0 739.624 739.623;"
	 xml:space="preserve">
<g>
	<g>
		<path d="M368.998,545.458c-0.034,0-0.237,0-0.271,0c-13.837-0.169-24.962-13.294-24.758-29.269l1.085-83.872l-86.959-1.119
			c-8.445-0.102-16.381-3.392-21.841-8.954c-4.511-4.612-6.918-10.479-6.817-16.551c0.204-13.871,12.854-24.724,28.828-24.724
			l87.433,1.119l1.153-90.249c0.237-16.042,11.294-28.59,25.199-28.59c6.342,0.102,12.175,2.679,16.687,7.326
			c5.392,5.562,8.444,13.566,8.309,21.977l-1.153,90.248l87.095,1.119c8.444,0.103,16.381,3.358,21.808,8.954
			c4.477,4.612,6.918,10.479,6.816,16.551c-0.203,13.871-12.888,24.724-28.896,24.724l0,0l-87.468-1.119l-1.051,83.839
			C393.959,532.876,382.903,545.458,368.998,545.458z M258.468,397.961c-6.579,0-12.006,3.663-12.074,8.004
			c-0.034,1.968,1.085,3.527,2.035,4.478c2.238,2.34,5.969,3.764,9.869,3.798l95.438,1.222c2.238,0.033,4.409,0.949,5.969,2.577
			c1.594,1.594,2.442,3.765,2.408,6.037l-1.187,92.351c-0.068,6.479,3.595,12.04,8.004,12.074l0.068,8.479v-8.479
			c4.375,0,8.14-5.461,8.241-11.904l1.153-92.317c0.034-2.238,0.95-4.409,2.544-5.969c1.628-1.561,3.527-2.069,6.037-2.408
			l95.539,1.221l0,0c6.579,0,12.04-3.663,12.107-8.004c0.034-1.967-1.085-3.527-2.035-4.477c-2.238-2.34-5.969-3.765-9.835-3.799
			l-95.573-1.221c-4.714-0.067-8.445-3.9-8.377-8.581l1.255-98.727c0.067-3.9-1.255-7.597-3.527-9.903
			c-0.916-0.983-2.442-2.171-4.409-2.171c-4.443,0-8.207,5.46-8.309,11.871l-1.255,98.727c-0.034,2.238-0.95,4.375-2.543,5.969
			c-1.594,1.526-3.697,2.408-5.935,2.408c-0.034,0-0.068,0-0.102,0L258.468,397.961L258.468,397.961z"/>
		<g>
			<g>
				<g>
					<path d="M667.35,735.824c-4.681,2.069-21.469,3.799-37.307,3.799H125.317c-15.873,0-32.66-1.696-37.307-3.799
						s-8.479-26.148-8.479-42.021V197.217c0-15.872,3.426-36.458,7.597-45.785c0,0,0,0,9.36,0c9.361,0,9.361,0,9.361,0
						c4.171,9.327,7.597,29.947,7.597,45.785V676.88c0,15.872,12.989,28.828,28.828,28.828h470.777
						c15.873,0,28.828-12.99,28.828-28.828V76.038c0-15.873-12.989-28.828-28.828-28.828H263.962
						c-15.873,0-36.459-3.425-45.786-7.597c0,0,0,0,0-9.361s0-9.361,0-9.361c9.327-4.171,29.947-7.597,45.786-7.597h366.047
						c15.872,0,32.66,1.696,37.307,3.798c4.646,2.103,8.479,26.149,8.479,42.021v634.757
						C675.829,709.676,671.997,733.756,667.35,735.824z"/>
				</g>
				<g>
					<path d="M82.21,186.907c0,0-5.969-1.933-13.261-4.273c0,0,0,0-2.543-6.478c-2.578-6.512-2.578-6.512-2.578-6.512
						c3.765-6.681,16.415-20.959,28.048-31.711l122.23-112.632C225.774,14.55,240.798,3.154,247.513,0c0,0,0,0,6.139,2.713
						c6.173,2.713,6.173,2.713,6.173,2.713c2.17,7.054,3.934,25.843,3.9,41.682l-0.238,93.504
						c-0.034,15.873-1.797,32.661-3.866,37.307c-2.069,4.646-26.081,8.513-41.953,8.546l-106.596,0.339
						C95.234,186.873,82.21,186.907,82.21,186.907z M229.708,85.839c0.034-15.872-9.497-20.044-21.163-9.292l-61.59,56.774
						c-11.633,10.717-8.207,19.501,7.665,19.433l46.057-0.135c15.873-0.034,28.862-13.058,28.896-28.93L229.708,85.839z"/>
				</g>
			</g>
		</g>
	</g>
</g>
<g>
</g>
<g>
</g>
<g>
</g>
<g>
</g>
<g>
</g>
<g>
</g>
<g>
</g>
<g>
</g>
<g>
</g>
<g>
</g>
<g>
</g>
<g>
</g>
<g>
</g>
<g>
</g>
<g>
</g>
</svg>
